<?xml version="1.0"?>
<svg width="100" height="100" xmlns="http://www.w3.org/2000/svg" xmlns:svg="http://www.w3.org/2000/svg">
 <g>
  <title>Layer 1</title>
  <path fill="black" id="svg_1" d="m99.579683,75.239921c-7.609628,-16.034153 -23.151601,-37.339343 -52.530601,-39.994756c-3.418733,-0.337453 -6.097723,-3.140224 -6.21119,-6.579587c-0.005894,-0.0781 -0.005894,-0.154727 -0.005894,-0.240195c0,-0.0781 0,-0.148833 0.005894,-0.226933l0,-9.578347l-0.005894,0c0,-1.684315 -1.380756,-3.050335 -3.07686,-3.050335c-0.744164,0 -1.424963,0.265247 -1.955456,0.699956c-0.035366,0.026525 -0.070732,0.058944 -0.109046,0.091363l-32.70637,28.941343c-0.002947,0.005894 -0.008842,0.005894 -0.01621,0.013262l-0.400817,0.356609c-1.30855,1.249606 -2.117551,2.998759 -2.117551,4.935059c0,1.696104 0.62775,3.256638 1.663685,4.454668l1.186241,1.087511l32.280502,29.607407c0.045681,0.044208 0.085468,0.091363 0.129676,0.129676c0.548176,0.478917 1.262868,0.764794 2.046819,0.764794c1.696104,0 3.07686,-1.360125 3.07686,-3.042967l0.005894,0l0,-11.980302c-0.005894,-0.0781 -0.005894,-0.154727 -0.005894,-0.232828s0,-0.154727 0.005894,-0.232828c0.123782,-3.678085 3.172643,-6.617901 6.915566,-6.617901l0,-0.013262c18.870817,0.375766 34.294902,2.751196 46.637708,13.915128c0,0 0,0 0.007368,0c0.22546,0.215144 0.459761,0.421447 0.686694,0.636592c0.005894,0.005894 0.005894,0.005894 0.005894,0.005894c0.49218,0.32419 1.081616,0.518704 1.716734,0.518704c1.701999,0 3.075386,-1.360125 3.075386,-3.042967c-0.001474,-0.483338 -0.104625,-0.922468 -0.305034,-1.324759z"/>
 </g>
</svg>