<svg xmlns="http://www.w3.org/2000/svg" xmlns:xlink="http://www.w3.org/1999/xlink" version="1.1" x="0px" y="0px" viewBox="0 0 100 125" enable-background="new 0 0 100 100" xml:space="preserve"><path d="M83.541,67.372C78.377,56.491,67.83,42.033,47.893,40.231c-2.32-0.229-4.138-2.131-4.215-4.465  c-0.004-0.053-0.004-0.105-0.004-0.163c0-0.053,0-0.101,0.004-0.154v-6.5h-0.004c0-1.143-0.937-2.07-2.088-2.07  c-0.505,0-0.967,0.18-1.327,0.475c-0.024,0.018-0.048,0.04-0.074,0.062L17.99,47.056c-0.002,0.004-0.006,0.004-0.011,0.009  l-0.272,0.242c-0.888,0.848-1.437,2.035-1.437,3.349c0,1.151,0.426,2.21,1.129,3.023l0.805,0.738l21.906,20.092  c0.031,0.03,0.058,0.062,0.088,0.088c0.372,0.325,0.857,0.519,1.389,0.519c1.151,0,2.088-0.923,2.088-2.065h0.004v-8.13  c-0.004-0.053-0.004-0.105-0.004-0.158s0-0.105,0.004-0.158c0.084-2.496,2.153-4.491,4.693-4.491v-0.009  c12.806,0.255,23.273,1.867,31.649,9.443c0,0,0,0,0.005,0c0.153,0.146,0.312,0.286,0.466,0.432c0.004,0.004,0.004,0.004,0.004,0.004  c0.334,0.22,0.734,0.352,1.165,0.352c1.155,0,2.087-0.923,2.087-2.065C83.747,67.943,83.677,67.645,83.541,67.372z"/><text x="0" y="115" fill="#000000" font-size="5px" font-weight="bold" font-family="'Helvetica Neue', Helvetica, Arial-Unicode, Arial, Sans-serif">Created by Rohith M S</text><text x="0" y="120" fill="#000000" font-size="5px" font-weight="bold" font-family="'Helvetica Neue', Helvetica, Arial-Unicode, Arial, Sans-serif">from the Noun Project</text></svg>