<svg xmlns="http://www.w3.org/2000/svg" xmlns:xlink="http://www.w3.org/1999/xlink" version="1.1" x="0px" y="0px" viewBox="0 0 100 125" style="enable-background:new 0 0 100 100;" xml:space="preserve"><path d="M84.5,40.1C83.7,30,78.6,20.2,69.8,13.7C53.6,1.9,30.9,5.3,19,21.5c-7,9.5-8.7,21.4-5.5,31.9  c-3.4-3.6-6.2-7.6-8.3-11.9C5.1,53.9,10.7,66,21.4,73.9c6.9,5.1,15,7.6,23,7.7v11.7h1.3V81.6c12-0.2,23.7-5.8,31.3-16.2  c0.1-0.2,0.2-0.3,0.3-0.5c0.1-0.1,0.2-0.2,0.3-0.3c4.2-5.7,6.4-12.2,6.9-18.7c6.6-2.2,10.6-4.1,10.3-5.2  C94.6,39.6,90.7,39.4,84.5,40.1z M67.4,39.4c-3.6,0-6.6-3-6.6-6.6s3-6.6,6.6-6.6c3.6,0,6.6,3,6.6,6.6S71.1,39.4,67.4,39.4z"/><text x="0" y="115" fill="#000000" font-size="5px" font-weight="bold" font-family="'Helvetica Neue', Helvetica, Arial-Unicode, Arial, Sans-serif">Created by Ecem Afacan</text><text x="0" y="120" fill="#000000" font-size="5px" font-weight="bold" font-family="'Helvetica Neue', Helvetica, Arial-Unicode, Arial, Sans-serif">from the Noun Project</text></svg>