<?xml version="1.0"?>
<svg width="100" height="100" xmlns="http://www.w3.org/2000/svg" xmlns:svg="http://www.w3.org/2000/svg">
 <g>
  <title>Layer 1</title>
  <path fill="black" id="svg_1" d="m84.5,40.1c-0.8,-10.1 -5.9,-19.9 -14.7,-26.4c-16.2,-11.8 -38.9,-8.4 -50.8,7.8c-7,9.5 -8.7,21.4 -5.5,31.9c-3.4,-3.6 -6.2,-7.6 -8.3,-11.9c-0.1,12.4 5.5,24.5 16.2,32.4c6.9,5.1 15,7.6 23,7.7l0,11.7l1.3,0l0,-11.7c12,-0.2 23.7,-5.8 31.3,-16.2c0.1,-0.2 0.2,-0.3 0.3,-0.5c0.1,-0.1 0.2,-0.2 0.3,-0.3c4.2,-5.7 6.4,-12.2 6.9,-18.7c6.6,-2.2 10.6,-4.1 10.3,-5.2c-0.2,-1.1 -4.1,-1.3 -10.3,-0.6zm-17.1,-0.7c-3.6,0 -6.6,-3 -6.6,-6.6s3,-6.6 6.6,-6.6c3.6,0 6.6,3 6.6,6.6s-2.9,6.6 -6.6,6.6z"/>
 </g>
</svg>