<?xml version="1.0"?>
<svg width="140" height="140" xmlns="http://www.w3.org/2000/svg" xmlns:svg="http://www.w3.org/2000/svg" preserveAspectRatio="xMidYMid meet">
 <metadata>Created by potrace 1.13, written by Peter Selinger 2001-2015</metadata>
 <g>
  <title>Layer 1</title>
  <path fill="black" id="svg_3" d="m67.060094,12.514351c-1.245894,0.726771 -15.573669,13.289531 -31.87411,28.136429c-27.202009,24.606398 -29.693796,27.098185 -29.693796,30.212918c0,6.644766 6.021819,8.721255 12.147462,4.049154c1.972665,-1.453542 3.633856,-2.491787 3.841505,-2.387963c0.103824,0.207649 3.322383,12.043638 7.163888,26.371413c5.295048,19.934297 7.371537,26.371413 9.136553,27.721131c1.972665,1.661191 5.191223,1.86884 32.081759,1.86884c26.890536,0 30.109094,-0.207649 32.081759,-1.86884c1.765016,-1.349718 3.841505,-7.786835 9.136553,-27.721131c3.841505,-14.327776 7.060063,-26.163764 7.163888,-26.371413c0.207649,-0.207649 1.765016,0.830596 3.530032,2.387963c3.737681,3.114734 6.852414,3.426207 10.174797,1.038245c3.737681,-2.595612 3.010909,-7.267712 -1.661191,-11.732164c-17.857807,-16.819563 -55.857561,-50.666337 -58.141699,-51.704582c-2.180314,-0.830596 -3.426207,-0.830596 -5.087399,0zm9.655675,38.726524c7.371537,3.530032 10.382446,14.535425 5.606521,21.18019c-8.305957,11.62834 -27.202009,6.229468 -27.202009,-7.786835c0,-11.420691 11.213042,-18.37693 21.595488,-13.393356zm-1.349718,43.813923c1.765016,1.557367 2.387963,7.060063 0.93442,9.136553c-1.349718,2.076489 -5.606521,3.737681 -7.994484,3.114734c-7.475361,-1.86884 -7.786835,-11.835989 -0.519122,-14.4316c2.076489,-0.726771 5.295048,0.207649 7.579186,2.180314z"/>
 </g>
</svg>